<svg id="Layer_1" data-name="Layer 1" xmlns="http://www.w3.org/2000/svg" xmlns:xlink="http://www.w3.org/1999/xlink" viewBox="0 0 40 40"><defs><linearGradient id="linear-gradient" x1="164.93" y1="81.76" x2="165.93" y2="81.76" gradientTransform="matrix(40, 0, 0, -40, -6597.37, 3290.54)" gradientUnits="userSpaceOnUse"><stop offset="0" stop-color="#54c0e8"/><stop offset="1" stop-color="#2a7de1"/></linearGradient></defs><g id="facebook"><circle id="Ellipse_16" data-name="Ellipse 16" cx="20" cy="20" r="20" style="fill:url(#linear-gradient)"/><g id="Group_1539" data-name="Group 1539"><path id="Path_1194" data-name="Path 1194" d="M14,20V14.86h2.54c0-.63,0-1.2,0-1.77a13.15,13.15,0,0,1,.2-2.16,4.65,4.65,0,0,1,4.62-3.81c1.48-.09,3,0,4.45,0l.17.06V11c0,.15,0,.3,0,.5H23.37c-1.1,0-1.45.35-1.45,1.44v1.85H26L25.55,20H21.73v12.9H16.54V20Z" style="fill:#fff"/></g></g></svg>