<svg id="Layer_1" data-name="Layer 1" xmlns="http://www.w3.org/2000/svg" xmlns:xlink="http://www.w3.org/1999/xlink" viewBox="0 0 40 40"><defs><linearGradient id="linear-gradient" x1="-41.15" y1="81.76" x2="-40.15" y2="81.76" gradientTransform="matrix(40, 0, 0, -40, 1646.11, 3290.54)" gradientUnits="userSpaceOnUse"><stop offset="0" stop-color="#8331a7"/><stop offset="1" stop-color="#655dc6"/></linearGradient></defs><g id="instagram-2"><circle id="Ellipse_18" data-name="Ellipse 18" cx="20" cy="20" r="20" style="fill:url(#linear-gradient)"/><g id="Group_1558" data-name="Group 1558"><path id="Path_1226" data-name="Path 1226" d="M15.91,10.22h9.63a1.08,1.08,0,0,0,.19,0,4.94,4.94,0,0,1,1.55.41,5.34,5.34,0,0,1,3.3,5c0,2.92,0,5.85,0,8.78a5.25,5.25,0,0,1-1,3.11A5.35,5.35,0,0,1,25,29.94H16.41a5.88,5.88,0,0,1-1.11-.1A5.37,5.37,0,0,1,11,25.78c-.08-.28-.1-.59-.16-.88V15.27c0-.2.06-.41.1-.6A5.38,5.38,0,0,1,15,10.38,8.72,8.72,0,0,1,15.91,10.22ZM28.84,20.1V15.81a4,4,0,0,0-.2-1.33A3.68,3.68,0,0,0,25,12c-2.88,0-5.75,0-8.63,0a3.73,3.73,0,0,0-1.28.2,3.64,3.64,0,0,0-2.52,3.6c0,2.86,0,5.73,0,8.6a3.78,3.78,0,0,0,.2,1.29,3.63,3.63,0,0,0,3.58,2.52h8.66a3.67,3.67,0,0,0,3.09-1.55,3.75,3.75,0,0,0,.69-2.26c0-1.43,0-2.85,0-4.28Z" style="fill:#fff"/><path id="Path_1227" data-name="Path 1227" d="M20.72,25.16a5.08,5.08,0,1,1,5.09-5.08A5.07,5.07,0,0,1,20.72,25.16Zm3.33-5.07a3.33,3.33,0,1,0-3.33,3.32,3.32,3.32,0,0,0,3.33-3.32Z" style="fill:#fff"/><path id="Path_1228" data-name="Path 1228" d="M26,13.52a1.28,1.28,0,1,1-1.28,1.28h0A1.29,1.29,0,0,1,26,13.52Z" style="fill:#fff"/></g></g></svg>