<svg id="Layer_1" data-name="Layer 1" xmlns="http://www.w3.org/2000/svg" xmlns:xlink="http://www.w3.org/1999/xlink" viewBox="0 0 40 40"><defs><linearGradient id="linear-gradient" x1="-149.75" y1="81.76" x2="-148.75" y2="81.76" gradientTransform="matrix(40, 0, 0, -40, 5990.15, 3290.54)" gradientUnits="userSpaceOnUse"><stop offset="0" stop-color="#1f5ea9"/><stop offset="1" stop-color="#2a7de1"/></linearGradient></defs><g id="linkedin-2"><circle id="Ellipse_21" data-name="Ellipse 21" cx="20" cy="20" r="20" style="fill:url(#linear-gradient)"/><g id="Group_1563" data-name="Group 1563"><path id="Path_1231" data-name="Path 1231" d="M21.1,18a14.33,14.33,0,0,1,1.08-1,4.2,4.2,0,0,1,2.25-.75,6.29,6.29,0,0,1,2.82.3,4.15,4.15,0,0,1,2.44,2.48A8.19,8.19,0,0,1,30.24,22c0,2.51,0,5,.05,7.54a.73.73,0,0,1-.64.82h-3.1a.69.69,0,0,1-.79-.59.67.67,0,0,1,0-.2c0-2.14,0-4.27,0-6.41a6.86,6.86,0,0,0-.2-1.5,1.93,1.93,0,0,0-1.81-1.58,2.13,2.13,0,0,0-2.21,1.24,4.52,4.52,0,0,0-.44,2v6.25c0,.58-.26.84-.83.84H17.47a.73.73,0,0,1-.81-.64.49.49,0,0,1,0-.17V17.26a.71.71,0,0,1,.61-.8.54.54,0,0,1,.18,0h2.87a.69.69,0,0,1,.77.61.38.38,0,0,1,0,.15C21.1,17.5,21.1,17.77,21.1,18Z" style="fill:#fff"/><path id="Path_1232" data-name="Path 1232" d="M10.35,23.41v-6.1a.75.75,0,0,1,.61-.85,1,1,0,0,1,.24,0h2.72a.77.77,0,0,1,.87.65.88.88,0,0,1,0,.23v12c0,.72-.26,1-1,1H11.22a.77.77,0,0,1-.87-.64,1,1,0,0,1,0-.24Z" style="fill:#fff"/><path id="Path_1233" data-name="Path 1233" d="M15.41,12.5a2.85,2.85,0,1,1-2.86-2.86,2.85,2.85,0,0,1,2.86,2.86Z" style="fill:#fff"/></g></g></svg>