<svg id="Layer_1" data-name="Layer 1" xmlns="http://www.w3.org/2000/svg" xmlns:xlink="http://www.w3.org/1999/xlink" viewBox="0 0 40.03 40.04"><defs><linearGradient id="linear-gradient" x1="-455.04" y1="81.8" x2="-454.04" y2="81.8" gradientTransform="matrix(40.03, 0, 0, -39.98, 18214.31, 3290.17)" gradientUnits="userSpaceOnUse"><stop offset="0" stop-color="#e50695"/><stop offset="1" stop-color="#f5acb8"/></linearGradient></defs><g id="pinterest-2"><path id="Rectangle_1764" data-name="Rectangle 1764" d="M20,.22h0A19.9,19.9,0,0,1,39.92,20.13h0A19.91,19.91,0,0,1,20,40h0A19.92,19.92,0,0,1,.1,20.13h0A19.91,19.91,0,0,1,20,.22Z" style="fill:#fff"/><path id="Path_1304" data-name="Path 1304" d="M14.36,39.15c2.05-2.81,2.42-6.2,3.36-9.41a8.1,8.1,0,0,0,11.45-.29l.2-.21A14,14,0,0,0,33,15.39C31.8,10.9,28.5,8.27,24,7.31a14.79,14.79,0,0,0-13.67,3.4A11.68,11.68,0,0,0,7.13,23.26a6.21,6.21,0,0,0,3.09,3.56c.82.42,1.2.25,1.43-.64a6.71,6.71,0,0,0,.3-1.27,1.75,1.75,0,0,0-.2-1.05C9.91,21.52,10.08,19,11,16.41a9.48,9.48,0,0,1,10.2-6c2.41.24,4.56,1,5.94,3.11a7.07,7.07,0,0,1,1.13,2.68,13.77,13.77,0,0,1-1.86,9.74,4.76,4.76,0,0,1-4.7,2.55A3,3,0,0,1,19,25.35a3.22,3.22,0,0,1,.11-.62c.49-2,1.1-3.93,1.61-5.91a5.13,5.13,0,0,0,.1-1.7A2.66,2.66,0,0,0,18,14.59a2.63,2.63,0,0,0-1.13.32c-1.94.93-2.54,2.7-2.63,4.66a18,18,0,0,0,.39,2.73,4.24,4.24,0,0,1,0,1.42c-.82,3.61-1.71,7.21-2.49,10.83a31.81,31.81,0,0,0-.36,3.64C4.15,35.26-2.25,25.37.76,14.75a20,20,0,1,1,14,24.52l-.44-.12Z" style="fill:url(#linear-gradient)"/></g></svg>