<svg id="Layer_1" data-name="Layer 1" xmlns="http://www.w3.org/2000/svg" xmlns:xlink="http://www.w3.org/1999/xlink" viewBox="0 0 40 40"><defs><linearGradient id="linear-gradient" x1="-349.37" y1="81.76" x2="-348.37" y2="81.76" gradientTransform="matrix(40, 0, 0, -40, 13974.75, 3290.54)" gradientUnits="userSpaceOnUse"><stop offset="0" stop-color="#ff7f30"/><stop offset="1" stop-color="#ffc844"/></linearGradient></defs><g id="snapchat-2"><circle id="Ellipse_20" data-name="Ellipse 20" cx="20" cy="20" r="20" style="fill:url(#linear-gradient)"/><g id="Group_1561" data-name="Group 1561"><path id="Path_1230" data-name="Path 1230" d="M26.25,15.44l-.08,1.61v.17c0,.15.07.21.22.22a1.11,1.11,0,0,0,.25-.05c.28-.1.55-.21.83-.3a8.19,8.19,0,0,1,.85-.23,1.11,1.11,0,0,1,.48,0,.76.76,0,0,1,.55.92.88.88,0,0,1-.05.15,1.75,1.75,0,0,1-.28.39,4.37,4.37,0,0,1-.48.37l-1.51,1a3.07,3.07,0,0,0-.35.28.55.55,0,0,0-.2.51,3.53,3.53,0,0,0,.13.63,6.68,6.68,0,0,0,1.4,2.4,9.71,9.71,0,0,0,3,2.27l.28.14.17.11a.23.23,0,0,1,.08.31.12.12,0,0,1-.06.06,1.33,1.33,0,0,1-.3.23,5.53,5.53,0,0,1-1.41.56l-.6.17-.27.11a.76.76,0,0,0-.48.65c0,.13-.05.26-.07.39a.44.44,0,0,1-.38.38,4.5,4.5,0,0,1-.63.07,12.19,12.19,0,0,0-1.6.14,5.31,5.31,0,0,0-1.85.65c-.34.21-.68.42-1,.61a5.22,5.22,0,0,1-2.13.71,5.76,5.76,0,0,1-3.65-.77l-.87-.53a5.22,5.22,0,0,0-2.1-.7c-.47-.06-.93-.07-1.4-.11a4.2,4.2,0,0,1-.62-.07.44.44,0,0,1-.38-.39c0-.13,0-.26-.07-.39a.74.74,0,0,0-.46-.63c-.24-.09-.48-.18-.73-.25a6,6,0,0,1-1.5-.56l-.27-.16c-.26-.2-.25-.39,0-.55l.23-.12A10.52,10.52,0,0,0,11.57,24a7.43,7.43,0,0,0,1.8-2.75,2.91,2.91,0,0,0,.17-.72.62.62,0,0,0-.2-.53,2.37,2.37,0,0,0-.29-.25l-1.44-1a4.56,4.56,0,0,1-.65-.51.83.83,0,0,1-.29-.48.77.77,0,0,1,.55-.94h0a1.3,1.3,0,0,1,.62,0c.32.09.63.2.95.31l.45.17.19.05c.29.07.4,0,.38-.32,0-.82-.1-1.63-.08-2.45a8.94,8.94,0,0,1,.29-2.24,5.27,5.27,0,0,1,2.31-3.05,6.28,6.28,0,0,1,2.94-1,7.05,7.05,0,0,1,3.15.39A5.9,5.9,0,0,1,25,10.61,5.13,5.13,0,0,1,26.1,13,13.87,13.87,0,0,1,26.25,15.44Z" style="fill:#fff"/></g></g></svg>