<svg id="Layer_1" data-name="Layer 1" xmlns="http://www.w3.org/2000/svg" xmlns:xlink="http://www.w3.org/1999/xlink" viewBox="0 0 40 40"><defs><linearGradient id="linear-gradient" x1="60.62" y1="81.76" x2="61.62" y2="81.76" gradientTransform="matrix(40, 0, 0, -40, -2424.97, 3290.54)" gradientUnits="userSpaceOnUse"><stop offset="0" stop-color="#54c0e8"/><stop offset="1" stop-color="#2a7de1"/></linearGradient></defs><g id="twitter"><circle id="Ellipse_15" data-name="Ellipse 15" cx="20" cy="20" r="20" style="fill:url(#linear-gradient)"/><g id="Group_1537" data-name="Group 1537"><path id="Path_1193" data-name="Path 1193" d="M8.56,28.27a9.8,9.8,0,0,0,7-2A4.86,4.86,0,0,1,11.11,23l1.07.05a4.33,4.33,0,0,0,1.07-.16,4.78,4.78,0,0,1-3.8-4.74,4.88,4.88,0,0,0,2.14.6,4.8,4.8,0,0,1-1.46-6.36,13.6,13.6,0,0,0,9.82,5c0-.22-.07-.42-.09-.62a4.77,4.77,0,0,1,4-5.18A4.69,4.69,0,0,1,28,12.93a.16.16,0,0,0,.18.06A9.86,9.86,0,0,0,31,11.91l.07,0h0a4.87,4.87,0,0,1-2,2.6,10.2,10.2,0,0,0,2.64-.7l-.25.36a9.67,9.67,0,0,1-2,2,.19.19,0,0,0-.09.17,13.81,13.81,0,0,1-3.76,10A12.55,12.55,0,0,1,19.28,30a14.17,14.17,0,0,1-4.9.32,13.25,13.25,0,0,1-5.78-2Z" style="fill:#fff"/></g></g></svg>