<svg id="Layer_1" data-name="Layer 1" xmlns="http://www.w3.org/2000/svg" xmlns:xlink="http://www.w3.org/1999/xlink" viewBox="0 0 40 40"><defs><linearGradient id="linear-gradient" x1="-249.8" y1="81.76" x2="-248.8" y2="81.76" gradientTransform="matrix(40, 0, 0, -40, 9991.95, 3290.54)" gradientUnits="userSpaceOnUse"><stop offset="0" stop-color="#e50695"/><stop offset="1" stop-color="#f5acb8"/></linearGradient></defs><g id="youtube-2"><circle id="Ellipse_19" data-name="Ellipse 19" cx="20" cy="20" r="20" style="fill:url(#linear-gradient)"/><path id="Path_1229" data-name="Path 1229" d="M31.22,15a2.89,2.89,0,0,0-2.49-2.57,13.74,13.74,0,0,0-1.93-.23c-2-.08-4.1-.16-6.14-.18a72.4,72.4,0,0,0-9.08.34,3.14,3.14,0,0,0-2.81,2.53c-.08.76-.22,1.51-.26,2.27a39.07,39.07,0,0,0,.2,7.72A3,3,0,0,0,11,27.49a8.06,8.06,0,0,0,2,.28c2.31.1,4.61.17,7.61.27,2.16-.12,5-.24,7.83-.44A2.94,2.94,0,0,0,31.21,25c.19-1.41.31-2.83.36-4.25A27.51,27.51,0,0,0,31.22,15ZM17.8,23.53V16.4L23.61,20Z" style="fill:#fff"/></g></svg>